<svg width="2223" height="2223" viewBox="0 0 2223 2223" fill="none" xmlns="http://www.w3.org/2000/svg">
<mask id="mask0" mask-type="alpha" maskUnits="userSpaceOnUse" x="0" y="0" width="2223" height="2223">
<circle cx="1111.5" cy="1111.5" r="1111.5" fill="#C4C4C4"/>
</mask>
<g mask="url(#mask0)">
<path d="M2677 1111.5C2677 1976.1 1976.1 2677 1111.5 2677C246.898 2677 -454 1976.1 -454 1111.5C-454 246.898 246.898 -454 1111.5 -454C1976.1 -454 2677 246.898 2677 1111.5Z" fill="#8178D9"/>
<path d="M199 1316.29V1227.16C253.822 1252.63 300.21 1265.36 333.947 1265.36C378.226 1265.36 399.312 1248.38 399.312 1216.55C399.312 1199.57 388.769 1186.84 369.793 1171.98C361.358 1165.62 342.382 1155.01 312.861 1142.27C283.342 1129.54 262.257 1116.81 249.605 1104.07C220.086 1078.61 203.217 1044.65 203.217 1006.45C203.217 968.254 215.868 936.421 243.279 913.076C270.692 889.733 308.644 877 357.141 877C397.204 877 441.483 887.611 492.088 908.833L460.459 983.109C416.18 966.132 384.553 955.521 361.358 955.521C338.164 957.643 321.296 961.888 312.861 970.376C302.319 978.864 298.101 987.353 298.101 997.964C298.101 1008.58 300.21 1017.06 304.428 1023.43C308.644 1029.8 314.971 1036.16 323.404 1042.53C331.839 1048.9 355.033 1059.51 390.877 1078.61C428.832 1095.58 454.134 1114.68 471.002 1135.91C487.87 1157.13 494.197 1180.47 494.197 1210.18C494.197 1250.5 479.437 1284.46 449.918 1307.8C420.397 1331.15 380.334 1343.88 329.73 1343.88C279.125 1343.88 236.954 1335.39 199 1316.29ZM567.995 1337.51V989.474H639.685L652.337 1034.04H656.553C677.64 1000.09 713.484 983.108 761.981 983.108C802.044 983.108 831.563 993.719 852.649 1014.94C873.734 1036.16 886.385 1070.12 886.385 1110.44V1337.51H791.5V1135.9C791.5 1110.44 787.284 1091.34 778.849 1078.61C770.416 1065.87 755.656 1059.51 736.678 1059.51C711.376 1059.51 690.291 1068 679.748 1084.97C669.205 1101.95 662.88 1131.66 662.88 1171.98V1335.39L567.995 1337.51V1337.51ZM962.292 1163.49C962.292 1106.19 977.052 1061.63 1006.57 1031.92C1036.09 1000.09 1076.15 983.109 1130.98 983.109C1164.71 983.109 1194.23 989.474 1217.43 1004.33C1242.73 1019.19 1261.71 1040.41 1276.47 1065.87C1289.12 1093.46 1297.55 1125.29 1297.55 1161.37C1297.55 1218.67 1282.79 1263.24 1253.27 1295.07C1223.75 1326.9 1181.58 1343.88 1128.87 1343.88C1095.13 1343.88 1065.61 1337.51 1040.31 1322.66C1015.01 1307.8 996.029 1286.58 981.268 1258.99C968.618 1231.4 962.292 1199.57 962.292 1163.49ZM1074.04 1084.97C1063.5 1101.95 1057.18 1127.42 1057.18 1161.37C1057.18 1195.33 1063.5 1222.91 1074.04 1239.89C1084.59 1256.87 1103.57 1265.36 1128.87 1265.36C1154.17 1265.36 1173.15 1256.87 1183.69 1239.89C1194.23 1222.91 1200.56 1197.45 1200.56 1161.37C1200.56 1127.42 1194.23 1101.95 1183.69 1084.97C1173.15 1068 1154.17 1059.51 1128.87 1059.51C1103.57 1059.51 1086.7 1068 1074.04 1084.97ZM1312.31 989.472H1411.41C1432.08 1049.92 1494.19 1239.41 1494.19 1239.41C1494.19 1239.41 1555.5 1051.01 1575.88 989.472H1674.98L1540.04 1337.51H1443.04L1312.31 989.472Z" fill="white"/>
<path opacity="0.5" d="M1679.2 1337.51L1729.81 1106.19H1790.95L1742.46 1337.51H1679.2ZM1738.23 1051.01C1738.23 1038.28 1742.46 1029.79 1748.78 1023.42C1755.1 1017.06 1763.54 1014.94 1776.19 1014.94C1793.06 1014.94 1803.6 1023.42 1803.6 1040.4C1803.6 1051.01 1801.5 1059.5 1795.16 1067.99C1788.84 1074.36 1782.52 1078.6 1769.87 1078.6C1748.78 1076.48 1738.23 1067.99 1738.23 1051.01V1051.01ZM1839.45 1318.41C1822.58 1301.43 1816.26 1280.21 1816.26 1252.62C1816.26 1225.03 1820.47 1199.56 1831.01 1176.22C1841.56 1152.88 1854.21 1135.9 1873.19 1123.16C1892.17 1110.43 1913.25 1104.07 1940.65 1104.07C1965.96 1104.07 1987.05 1112.55 2001.81 1129.53C2016.57 1146.51 2025 1167.73 2025 1197.44C2025 1227.15 2020.79 1252.62 2010.24 1273.84C1999.7 1295.06 1987.05 1314.16 1968.07 1326.89C1949.09 1339.63 1928.01 1345.99 1902.7 1345.99C1877.4 1345.99 1856.32 1333.26 1839.45 1318.41V1318.41ZM1877.4 1252.62C1877.4 1278.08 1887.95 1290.82 1909.03 1290.82C1919.57 1290.82 1928.01 1286.57 1936.44 1278.08C1944.88 1269.6 1951.2 1256.86 1955.42 1242.01C1959.63 1227.15 1961.75 1210.17 1961.75 1193.2C1961.75 1165.61 1951.2 1152.88 1932.23 1152.88C1921.68 1152.88 1913.25 1157.12 1904.81 1165.61C1896.38 1174.1 1890.06 1186.83 1885.83 1201.69C1881.62 1218.66 1877.4 1235.64 1877.4 1252.62Z" fill="white"/>
</g>
</svg>
